<mxfile host="app.diagrams.net" modified="2022-12-19T14:07:45.870Z" agent="5.0 (Windows NT 10.0; Win64; x64) AppleWebKit/537.36 (KHTML, like Gecko) Chrome/108.0.0.0 Safari/537.36" etag="fQrUlsaEqPFRcCPwH1j9" version="20.7.3" type="github">
  <diagram id="2GgVIb7Z59eeOR562pFj" name="Страница 1">
    <mxGraphModel dx="1050" dy="549" grid="1" gridSize="10" guides="1" tooltips="1" connect="1" arrows="1" fold="1" page="1" pageScale="1" pageWidth="827" pageHeight="1169" math="0" shadow="0">
      <root>
        <mxCell id="0" />
        <mxCell id="1" parent="0" />
        <mxCell id="y8PCvm3dNN0ObkrRucyr-6" style="edgeStyle=orthogonalEdgeStyle;rounded=0;orthogonalLoop=1;jettySize=auto;html=1;entryX=0;entryY=0.25;entryDx=0;entryDy=0;" parent="1" source="y8PCvm3dNN0ObkrRucyr-1" target="y8PCvm3dNN0ObkrRucyr-3" edge="1">
          <mxGeometry relative="1" as="geometry" />
        </mxCell>
        <mxCell id="y8PCvm3dNN0ObkrRucyr-1" value="job seeker" style="rounded=0;whiteSpace=wrap;html=1;" parent="1" vertex="1">
          <mxGeometry x="80" y="80" width="120" height="60" as="geometry" />
        </mxCell>
        <mxCell id="y8PCvm3dNN0ObkrRucyr-7" style="edgeStyle=orthogonalEdgeStyle;rounded=0;orthogonalLoop=1;jettySize=auto;html=1;entryX=0;entryY=0.667;entryDx=0;entryDy=0;entryPerimeter=0;" parent="1" source="y8PCvm3dNN0ObkrRucyr-2" target="y8PCvm3dNN0ObkrRucyr-3" edge="1">
          <mxGeometry relative="1" as="geometry" />
        </mxCell>
        <mxCell id="y8PCvm3dNN0ObkrRucyr-2" value="vacancy" style="rounded=0;whiteSpace=wrap;html=1;" parent="1" vertex="1">
          <mxGeometry x="80" y="220" width="120" height="60" as="geometry" />
        </mxCell>
        <mxCell id="y8PCvm3dNN0ObkrRucyr-3" value="Jop Application" style="whiteSpace=wrap;html=1;aspect=fixed;" parent="1" vertex="1">
          <mxGeometry x="360" y="120" width="120" height="120" as="geometry" />
        </mxCell>
        <mxCell id="y8PCvm3dNN0ObkrRucyr-12" style="edgeStyle=orthogonalEdgeStyle;rounded=0;orthogonalLoop=1;jettySize=auto;html=1;entryX=0.5;entryY=1;entryDx=0;entryDy=0;fontSize=14;" parent="1" source="y8PCvm3dNN0ObkrRucyr-11" target="y8PCvm3dNN0ObkrRucyr-3" edge="1">
          <mxGeometry relative="1" as="geometry" />
        </mxCell>
        <mxCell id="y8PCvm3dNN0ObkrRucyr-11" value="Review&lt;br style=&quot;font-size: 15px;&quot;&gt;&lt;br style=&quot;font-size: 15px;&quot;&gt;&lt;br style=&quot;font-size: 15px;&quot;&gt;1.&amp;nbsp;View resume&amp;nbsp;(picklist); description (text long); grade (picklist)&lt;br style=&quot;font-size: 15px;&quot;&gt;2. Communication&amp;nbsp;(picklist); description (text long); grade (picklist)&lt;br style=&quot;font-size: 15px;&quot;&gt;-(picklist).&lt;br style=&quot;font-size: 15px;&quot;&gt;3.&amp;nbsp;Test&amp;nbsp;(picklist); description (text long); grade (picklist)" style="rounded=1;textDirection=ltr;labelBackgroundColor=none;html=1;fontSize=15;align=left;" parent="1" vertex="1">
          <mxGeometry x="137" y="400" width="566" height="180" as="geometry" />
        </mxCell>
      </root>
    </mxGraphModel>
  </diagram>
</mxfile>
